<mxfile host="65bd71144e">
    <diagram id="jtlokfSB71wrjKScR97X" name="Page-1">
        <mxGraphModel dx="1968" dy="790" grid="1" gridSize="10" guides="1" tooltips="1" connect="1" arrows="1" fold="1" page="1" pageScale="1" pageWidth="850" pageHeight="1100" math="0" shadow="0">
            <root>
                <mxCell id="0"/>
                <mxCell id="1" parent="0"/>
                <mxCell id="2" value="&lt;u&gt;SSN&lt;/u&gt;" style="rounded=0;whiteSpace=wrap;html=1;" parent="1" vertex="1">
                    <mxGeometry x="80" y="200" width="120" height="40" as="geometry"/>
                </mxCell>
                <mxCell id="3" value="Fname" style="rounded=0;whiteSpace=wrap;html=1;" parent="1" vertex="1">
                    <mxGeometry x="200" y="200" width="120" height="40" as="geometry"/>
                </mxCell>
                <mxCell id="5" value="Title" style="rounded=0;whiteSpace=wrap;html=1;" parent="1" vertex="1">
                    <mxGeometry x="680" y="200" width="120" height="40" as="geometry"/>
                </mxCell>
                <mxCell id="6" value="Professor" style="text;html=1;strokeColor=none;fillColor=none;align=center;verticalAlign=middle;whiteSpace=wrap;rounded=0;" parent="1" vertex="1">
                    <mxGeometry x="80" y="160" width="80" height="40" as="geometry"/>
                </mxCell>
                <mxCell id="7" value="&lt;u&gt;Dept_ Number&lt;/u&gt;" style="rounded=0;whiteSpace=wrap;html=1;" parent="1" vertex="1">
                    <mxGeometry x="80" y="320" width="120" height="40" as="geometry"/>
                </mxCell>
                <mxCell id="8" value="Name" style="rounded=0;whiteSpace=wrap;html=1;" parent="1" vertex="1">
                    <mxGeometry x="200" y="320" width="120" height="40" as="geometry"/>
                </mxCell>
                <mxCell id="9" value="Office Location" style="rounded=0;whiteSpace=wrap;html=1;" parent="1" vertex="1">
                    <mxGeometry x="320" y="320" width="120" height="40" as="geometry"/>
                </mxCell>
                <mxCell id="10" value="Telephone" style="rounded=0;whiteSpace=wrap;html=1;" parent="1" vertex="1">
                    <mxGeometry x="440" y="320" width="120" height="40" as="geometry"/>
                </mxCell>
                <mxCell id="11" value="Department" style="text;html=1;strokeColor=none;fillColor=none;align=center;verticalAlign=middle;whiteSpace=wrap;rounded=0;" parent="1" vertex="1">
                    <mxGeometry x="80" y="280" width="80" height="40" as="geometry"/>
                </mxCell>
                <mxCell id="12" value="&lt;u&gt;Course_no&lt;/u&gt;" style="rounded=0;whiteSpace=wrap;html=1;" parent="1" vertex="1">
                    <mxGeometry x="80" y="440" width="120" height="40" as="geometry"/>
                </mxCell>
                <mxCell id="13" value="Title" style="rounded=0;whiteSpace=wrap;html=1;" parent="1" vertex="1">
                    <mxGeometry x="320" y="440" width="120" height="40" as="geometry"/>
                </mxCell>
                <mxCell id="14" value="Textbook" style="rounded=0;whiteSpace=wrap;html=1;" parent="1" vertex="1">
                    <mxGeometry x="440" y="440" width="120" height="40" as="geometry"/>
                </mxCell>
                <mxCell id="15" value="Units" style="rounded=0;whiteSpace=wrap;html=1;" parent="1" vertex="1">
                    <mxGeometry x="560" y="440" width="120" height="40" as="geometry"/>
                </mxCell>
                <mxCell id="16" value="Course" style="text;html=1;strokeColor=none;fillColor=none;align=center;verticalAlign=middle;whiteSpace=wrap;rounded=0;" parent="1" vertex="1">
                    <mxGeometry x="80" y="400" width="80" height="40" as="geometry"/>
                </mxCell>
                <mxCell id="17" value="&lt;u&gt;Section_id&lt;/u&gt;" style="rounded=0;whiteSpace=wrap;html=1;" parent="1" vertex="1">
                    <mxGeometry x="80" y="560" width="120" height="40" as="geometry"/>
                </mxCell>
                <mxCell id="106" style="edgeStyle=orthogonalEdgeStyle;html=1;exitX=0.5;exitY=0;exitDx=0;exitDy=0;entryX=0.25;entryY=1;entryDx=0;entryDy=0;" parent="1" source="18" target="12" edge="1">
                    <mxGeometry relative="1" as="geometry">
                        <Array as="points">
                            <mxPoint x="380" y="530"/>
                            <mxPoint x="110" y="530"/>
                        </Array>
                    </mxGeometry>
                </mxCell>
                <mxCell id="18" value="&lt;u&gt;Course_No&lt;/u&gt;." style="rounded=0;whiteSpace=wrap;html=1;" parent="1" vertex="1">
                    <mxGeometry x="320" y="560" width="120" height="40" as="geometry"/>
                </mxCell>
                <mxCell id="19" value="Meeting_days" style="rounded=0;whiteSpace=wrap;html=1;" parent="1" vertex="1">
                    <mxGeometry x="440" y="560" width="120" height="40" as="geometry"/>
                </mxCell>
                <mxCell id="21" value="Section" style="text;html=1;strokeColor=none;fillColor=none;align=center;verticalAlign=middle;whiteSpace=wrap;rounded=0;" parent="1" vertex="1">
                    <mxGeometry x="80" y="520" width="80" height="40" as="geometry"/>
                </mxCell>
                <mxCell id="22" value="&lt;u&gt;CWID&lt;/u&gt;" style="rounded=0;whiteSpace=wrap;html=1;" parent="1" vertex="1">
                    <mxGeometry x="80" y="680" width="120" height="40" as="geometry"/>
                </mxCell>
                <mxCell id="23" value="Fname" style="rounded=0;whiteSpace=wrap;html=1;" parent="1" vertex="1">
                    <mxGeometry x="200" y="680" width="120" height="40" as="geometry"/>
                </mxCell>
                <mxCell id="24" value="Address" style="rounded=0;whiteSpace=wrap;html=1;" parent="1" vertex="1">
                    <mxGeometry x="440" y="680" width="120" height="40" as="geometry"/>
                </mxCell>
                <mxCell id="25" value="Telephone #" style="rounded=0;whiteSpace=wrap;html=1;" parent="1" vertex="1">
                    <mxGeometry x="560" y="680" width="120" height="40" as="geometry"/>
                </mxCell>
                <mxCell id="26" value="Student" style="text;html=1;strokeColor=none;fillColor=none;align=center;verticalAlign=middle;whiteSpace=wrap;rounded=0;" parent="1" vertex="1">
                    <mxGeometry x="80" y="640" width="80" height="40" as="geometry"/>
                </mxCell>
                <mxCell id="67" style="edgeStyle=orthogonalEdgeStyle;html=1;exitX=0.75;exitY=0;exitDx=0;exitDy=0;entryX=0.75;entryY=1;entryDx=0;entryDy=0;" parent="1" source="27" target="22" edge="1">
                    <mxGeometry relative="1" as="geometry"/>
                </mxCell>
                <mxCell id="27" value="&lt;u&gt;CWID&lt;/u&gt;" style="rounded=0;whiteSpace=wrap;html=1;" parent="1" vertex="1">
                    <mxGeometry x="80" y="800" width="120" height="40" as="geometry"/>
                </mxCell>
                <mxCell id="105" style="edgeStyle=orthogonalEdgeStyle;html=1;exitX=0.5;exitY=1;exitDx=0;exitDy=0;entryX=0.5;entryY=1;entryDx=0;entryDy=0;" parent="1" source="28" target="17" edge="1">
                    <mxGeometry relative="1" as="geometry">
                        <Array as="points">
                            <mxPoint x="260" y="850"/>
                            <mxPoint x="50" y="850"/>
                            <mxPoint x="50" y="630"/>
                            <mxPoint x="140" y="630"/>
                        </Array>
                    </mxGeometry>
                </mxCell>
                <mxCell id="28" value="&lt;u&gt;Section_id&lt;/u&gt;" style="rounded=0;whiteSpace=wrap;html=1;" parent="1" vertex="1">
                    <mxGeometry x="200" y="800" width="120" height="40" as="geometry"/>
                </mxCell>
                <mxCell id="29" value="Grade" style="rounded=0;whiteSpace=wrap;html=1;" parent="1" vertex="1">
                    <mxGeometry x="320" y="800" width="120" height="40" as="geometry"/>
                </mxCell>
                <mxCell id="31" value="Enroll Records" style="text;html=1;strokeColor=none;fillColor=none;align=center;verticalAlign=middle;whiteSpace=wrap;rounded=0;" parent="1" vertex="1">
                    <mxGeometry x="80" y="760" width="80" height="40" as="geometry"/>
                </mxCell>
                <mxCell id="32" value="Sex" style="rounded=0;whiteSpace=wrap;html=1;" parent="1" vertex="1">
                    <mxGeometry x="440" y="200" width="120" height="40" as="geometry"/>
                </mxCell>
                <mxCell id="33" value="Salary" style="rounded=0;whiteSpace=wrap;html=1;" parent="1" vertex="1">
                    <mxGeometry x="560" y="200" width="120" height="40" as="geometry"/>
                </mxCell>
                <mxCell id="34" value="Street Address" style="rounded=0;whiteSpace=wrap;html=1;" parent="1" vertex="1">
                    <mxGeometry x="200" y="920" width="120" height="40" as="geometry"/>
                </mxCell>
                <mxCell id="35" value="Chairperson" style="rounded=0;whiteSpace=wrap;html=1;" parent="1" vertex="1">
                    <mxGeometry x="560" y="320" width="120" height="40" as="geometry"/>
                </mxCell>
                <mxCell id="36" value="Telephone" style="rounded=0;whiteSpace=wrap;html=1;" parent="1" vertex="1">
                    <mxGeometry x="680" y="320" width="120" height="40" as="geometry"/>
                </mxCell>
                <mxCell id="37" value="Prereq Course" style="rounded=0;whiteSpace=wrap;html=1;" parent="1" vertex="1">
                    <mxGeometry x="680" y="440" width="120" height="40" as="geometry"/>
                </mxCell>
                <mxCell id="102" style="edgeStyle=orthogonalEdgeStyle;html=1;exitX=0.5;exitY=0;exitDx=0;exitDy=0;entryX=0.75;entryY=1;entryDx=0;entryDy=0;" parent="1" source="39" target="44" edge="1">
                    <mxGeometry relative="1" as="geometry">
                        <Array as="points">
                            <mxPoint x="260" y="400"/>
                            <mxPoint x="890" y="400"/>
                        </Array>
                    </mxGeometry>
                </mxCell>
                <mxCell id="39" value="&lt;u&gt;Dept_num&lt;/u&gt;" style="rounded=0;whiteSpace=wrap;html=1;" parent="1" vertex="1">
                    <mxGeometry x="200" y="440" width="120" height="40" as="geometry"/>
                </mxCell>
                <mxCell id="40" value="Num_of_Seats" style="rounded=0;whiteSpace=wrap;html=1;" parent="1" vertex="1">
                    <mxGeometry x="560" y="560" width="120" height="40" as="geometry"/>
                </mxCell>
                <mxCell id="41" value="Beginning_time" style="rounded=0;whiteSpace=wrap;html=1;" parent="1" vertex="1">
                    <mxGeometry x="800" y="560" width="120" height="40" as="geometry"/>
                </mxCell>
                <mxCell id="42" value="Classroom" style="rounded=0;whiteSpace=wrap;html=1;" parent="1" vertex="1">
                    <mxGeometry x="680" y="560" width="120" height="40" as="geometry"/>
                </mxCell>
                <mxCell id="43" value="End_Time" style="rounded=0;whiteSpace=wrap;html=1;" parent="1" vertex="1">
                    <mxGeometry x="920" y="560" width="120" height="40" as="geometry"/>
                </mxCell>
                <mxCell id="100" style="edgeStyle=orthogonalEdgeStyle;html=1;exitX=0.5;exitY=1;exitDx=0;exitDy=0;entryX=0.5;entryY=1;entryDx=0;entryDy=0;" parent="1" source="44" target="7" edge="1">
                    <mxGeometry relative="1" as="geometry">
                        <Array as="points">
                            <mxPoint x="860" y="390"/>
                            <mxPoint x="140" y="390"/>
                        </Array>
                    </mxGeometry>
                </mxCell>
                <mxCell id="44" value="&lt;u&gt;Department_no&lt;/u&gt;" style="rounded=0;whiteSpace=wrap;html=1;" parent="1" vertex="1">
                    <mxGeometry x="800" y="200" width="120" height="40" as="geometry"/>
                </mxCell>
                <mxCell id="47" value="Area Code" style="rounded=0;whiteSpace=wrap;html=1;" parent="1" vertex="1">
                    <mxGeometry x="200" y="1040" width="120" height="40" as="geometry"/>
                </mxCell>
                <mxCell id="104" style="edgeStyle=orthogonalEdgeStyle;html=1;exitX=0.5;exitY=0;exitDx=0;exitDy=0;entryX=0.5;entryY=1;entryDx=0;entryDy=0;" parent="1" source="84" target="2" edge="1">
                    <mxGeometry relative="1" as="geometry">
                        <Array as="points">
                            <mxPoint x="1100" y="280"/>
                            <mxPoint x="140" y="280"/>
                        </Array>
                    </mxGeometry>
                </mxCell>
                <mxCell id="84" value="&lt;u&gt;Professor_SSN&lt;/u&gt;" style="rounded=0;whiteSpace=wrap;html=1;" parent="1" vertex="1">
                    <mxGeometry x="1040" y="560" width="120" height="40" as="geometry"/>
                </mxCell>
                <mxCell id="85" value="Lname" style="rounded=0;whiteSpace=wrap;html=1;" parent="1" vertex="1">
                    <mxGeometry x="320" y="680" width="120" height="40" as="geometry"/>
                </mxCell>
                <mxCell id="86" value="Section_number" style="rounded=0;whiteSpace=wrap;html=1;" parent="1" vertex="1">
                    <mxGeometry x="200" y="560" width="120" height="40" as="geometry"/>
                </mxCell>
                <mxCell id="88" value="Prof_Address" style="text;html=1;strokeColor=none;fillColor=none;align=center;verticalAlign=middle;whiteSpace=wrap;rounded=0;" parent="1" vertex="1">
                    <mxGeometry x="80" y="880" width="80" height="40" as="geometry"/>
                </mxCell>
                <mxCell id="89" value="Prof_Phone" style="text;html=1;strokeColor=none;fillColor=none;align=center;verticalAlign=middle;whiteSpace=wrap;rounded=0;" parent="1" vertex="1">
                    <mxGeometry x="80" y="1000" width="80" height="40" as="geometry"/>
                </mxCell>
                <mxCell id="90" value="degree_name" style="rounded=0;whiteSpace=wrap;html=1;" parent="1" vertex="1">
                    <mxGeometry x="200" y="1160" width="120" height="40" as="geometry"/>
                </mxCell>
                <mxCell id="91" value="Prof_Degrees" style="text;html=1;strokeColor=none;fillColor=none;align=center;verticalAlign=middle;whiteSpace=wrap;rounded=0;" parent="1" vertex="1">
                    <mxGeometry x="80" y="1120" width="80" height="40" as="geometry"/>
                </mxCell>
                <mxCell id="92" value="Number" style="rounded=0;whiteSpace=wrap;html=1;" parent="1" vertex="1">
                    <mxGeometry x="320" y="1040" width="120" height="40" as="geometry"/>
                </mxCell>
                <mxCell id="108" style="edgeStyle=orthogonalEdgeStyle;html=1;exitX=0.5;exitY=1;exitDx=0;exitDy=0;entryX=0;entryY=0.5;entryDx=0;entryDy=0;" parent="1" source="93" target="2" edge="1">
                    <mxGeometry relative="1" as="geometry">
                        <Array as="points">
                            <mxPoint x="140" y="1090"/>
                            <mxPoint x="20" y="1090"/>
                            <mxPoint x="20" y="220"/>
                        </Array>
                    </mxGeometry>
                </mxCell>
                <mxCell id="93" value="&lt;u&gt;Prof_ssn&lt;/u&gt;" style="rounded=0;whiteSpace=wrap;html=1;" parent="1" vertex="1">
                    <mxGeometry x="80" y="1040" width="120" height="40" as="geometry"/>
                </mxCell>
                <mxCell id="109" style="edgeStyle=orthogonalEdgeStyle;html=1;exitX=0.5;exitY=1;exitDx=0;exitDy=0;entryX=0;entryY=0.25;entryDx=0;entryDy=0;" parent="1" source="94" target="2" edge="1">
                    <mxGeometry relative="1" as="geometry">
                        <Array as="points">
                            <mxPoint x="140" y="1210"/>
                            <mxPoint y="1210"/>
                            <mxPoint y="210"/>
                        </Array>
                    </mxGeometry>
                </mxCell>
                <mxCell id="94" value="&lt;u&gt;Prof_ssn&lt;/u&gt;" style="rounded=0;whiteSpace=wrap;html=1;" parent="1" vertex="1">
                    <mxGeometry x="80" y="1160" width="120" height="40" as="geometry"/>
                </mxCell>
                <mxCell id="107" style="edgeStyle=orthogonalEdgeStyle;html=1;exitX=0.5;exitY=1;exitDx=0;exitDy=0;entryX=0.25;entryY=1;entryDx=0;entryDy=0;" parent="1" source="95" target="2" edge="1">
                    <mxGeometry relative="1" as="geometry">
                        <Array as="points">
                            <mxPoint x="140" y="970"/>
                            <mxPoint x="40" y="970"/>
                            <mxPoint x="40" y="240"/>
                        </Array>
                    </mxGeometry>
                </mxCell>
                <mxCell id="95" value="&lt;u&gt;Prof_ssn&lt;/u&gt;" style="rounded=0;whiteSpace=wrap;html=1;" parent="1" vertex="1">
                    <mxGeometry x="80" y="920" width="120" height="40" as="geometry"/>
                </mxCell>
                <mxCell id="96" value="Zip" style="rounded=0;whiteSpace=wrap;html=1;" parent="1" vertex="1">
                    <mxGeometry x="560" y="920" width="120" height="40" as="geometry"/>
                </mxCell>
                <mxCell id="97" value="State" style="rounded=0;whiteSpace=wrap;html=1;" parent="1" vertex="1">
                    <mxGeometry x="440" y="920" width="120" height="40" as="geometry"/>
                </mxCell>
                <mxCell id="98" value="City" style="rounded=0;whiteSpace=wrap;html=1;" parent="1" vertex="1">
                    <mxGeometry x="320" y="920" width="120" height="40" as="geometry"/>
                </mxCell>
                <mxCell id="99" value="Lname" style="rounded=0;whiteSpace=wrap;html=1;" parent="1" vertex="1">
                    <mxGeometry x="320" y="200" width="120" height="40" as="geometry"/>
                </mxCell>
                <mxCell id="110" value="minor" style="rounded=0;whiteSpace=wrap;html=1;" parent="1" vertex="1">
                    <mxGeometry x="200" y="1280" width="120" height="40" as="geometry"/>
                </mxCell>
                <mxCell id="111" value="Student Minors" style="text;html=1;strokeColor=none;fillColor=none;align=center;verticalAlign=middle;whiteSpace=wrap;rounded=0;" parent="1" vertex="1">
                    <mxGeometry x="80" y="1240" width="80" height="40" as="geometry"/>
                </mxCell>
                <mxCell id="113" style="edgeStyle=orthogonalEdgeStyle;html=1;exitX=0.5;exitY=1;exitDx=0;exitDy=0;entryX=0.25;entryY=1;entryDx=0;entryDy=0;" parent="1" source="112" target="22" edge="1">
                    <mxGeometry relative="1" as="geometry">
                        <Array as="points">
                            <mxPoint x="140" y="1330"/>
                            <mxPoint x="-50" y="1330"/>
                            <mxPoint x="-50" y="720"/>
                        </Array>
                    </mxGeometry>
                </mxCell>
                <mxCell id="112" value="&lt;u&gt;Student_CWID&lt;/u&gt;" style="rounded=0;whiteSpace=wrap;html=1;" parent="1" vertex="1">
                    <mxGeometry x="80" y="1280" width="120" height="40" as="geometry"/>
                </mxCell>
            </root>
        </mxGraphModel>
    </diagram>
</mxfile>